<mxfile host="app.diagrams.net" modified="2023-11-05T19:58:51.918Z" agent="Mozilla/5.0 (Windows NT 10.0; Win64; x64) AppleWebKit/537.36 (KHTML, like Gecko) Chrome/118.0.0.0 Safari/537.36 Edg/118.0.2088.46" etag="_M4-8b2rus8oY3vxzKrr" version="22.0.8" type="github">
  <diagram name="第 1 页" id="74w61iRnDABgLTXGHRjC">
    <mxGraphModel dx="542" dy="322" grid="1" gridSize="10" guides="1" tooltips="1" connect="1" arrows="1" fold="1" page="1" pageScale="1" pageWidth="827" pageHeight="1169" math="0" shadow="0">
      <root>
        <mxCell id="0" />
        <mxCell id="1" parent="0" />
        <mxCell id="xaXzq3geVz3e67vYe51H-1" value="" style="rounded=0;whiteSpace=wrap;html=1;" vertex="1" parent="1">
          <mxGeometry x="190" y="100" width="130" height="90" as="geometry" />
        </mxCell>
        <mxCell id="xaXzq3geVz3e67vYe51H-14" style="edgeStyle=orthogonalEdgeStyle;rounded=0;orthogonalLoop=1;jettySize=auto;html=1;entryX=0;entryY=0.5;entryDx=0;entryDy=0;" edge="1" parent="1">
          <mxGeometry relative="1" as="geometry">
            <mxPoint x="320" y="139.76" as="sourcePoint" />
            <mxPoint x="520" y="139.76" as="targetPoint" />
          </mxGeometry>
        </mxCell>
        <mxCell id="xaXzq3geVz3e67vYe51H-3" value="ASM" style="rounded=0;whiteSpace=wrap;html=1;" vertex="1" parent="1">
          <mxGeometry x="280" y="125" width="40" height="40" as="geometry" />
        </mxCell>
        <mxCell id="xaXzq3geVz3e67vYe51H-4" value="" style="rounded=0;whiteSpace=wrap;html=1;" vertex="1" parent="1">
          <mxGeometry x="190" y="240" width="130" height="90" as="geometry" />
        </mxCell>
        <mxCell id="xaXzq3geVz3e67vYe51H-5" value="ASM" style="rounded=0;whiteSpace=wrap;html=1;" vertex="1" parent="1">
          <mxGeometry x="280" y="265" width="40" height="40" as="geometry" />
        </mxCell>
        <mxCell id="xaXzq3geVz3e67vYe51H-6" value="" style="rounded=0;whiteSpace=wrap;html=1;direction=east;" vertex="1" parent="1">
          <mxGeometry x="520" y="100" width="130" height="90" as="geometry" />
        </mxCell>
        <mxCell id="xaXzq3geVz3e67vYe51H-8" value="" style="rounded=0;whiteSpace=wrap;html=1;direction=east;" vertex="1" parent="1">
          <mxGeometry x="520" y="240" width="130" height="90" as="geometry" />
        </mxCell>
        <mxCell id="xaXzq3geVz3e67vYe51H-12" value="ASM" style="rounded=0;whiteSpace=wrap;html=1;direction=east;" vertex="1" parent="1">
          <mxGeometry x="520" y="125" width="40" height="40" as="geometry" />
        </mxCell>
        <mxCell id="xaXzq3geVz3e67vYe51H-13" value="ASM" style="rounded=0;whiteSpace=wrap;html=1;direction=east;" vertex="1" parent="1">
          <mxGeometry x="520" y="265" width="40" height="40" as="geometry" />
        </mxCell>
        <mxCell id="xaXzq3geVz3e67vYe51H-16" style="edgeStyle=orthogonalEdgeStyle;rounded=0;orthogonalLoop=1;jettySize=auto;html=1;entryX=0;entryY=0.5;entryDx=0;entryDy=0;" edge="1" parent="1">
          <mxGeometry relative="1" as="geometry">
            <mxPoint x="520" y="149.76" as="sourcePoint" />
            <mxPoint x="320" y="149.76" as="targetPoint" />
          </mxGeometry>
        </mxCell>
        <mxCell id="xaXzq3geVz3e67vYe51H-17" style="edgeStyle=orthogonalEdgeStyle;rounded=0;orthogonalLoop=1;jettySize=auto;html=1;entryX=0;entryY=0.5;entryDx=0;entryDy=0;" edge="1" parent="1">
          <mxGeometry relative="1" as="geometry">
            <mxPoint x="320" y="279.76" as="sourcePoint" />
            <mxPoint x="520" y="279.76" as="targetPoint" />
          </mxGeometry>
        </mxCell>
        <mxCell id="xaXzq3geVz3e67vYe51H-18" style="edgeStyle=orthogonalEdgeStyle;rounded=0;orthogonalLoop=1;jettySize=auto;html=1;entryX=0;entryY=0.5;entryDx=0;entryDy=0;" edge="1" parent="1">
          <mxGeometry relative="1" as="geometry">
            <mxPoint x="520" y="289.76" as="sourcePoint" />
            <mxPoint x="320" y="289.76" as="targetPoint" />
          </mxGeometry>
        </mxCell>
      </root>
    </mxGraphModel>
  </diagram>
</mxfile>
